<?xml version="1.0" encoding="UTF-8"?>
<svg version="1.1" xmlns="http://www.w3.org/2000/svg" width="487" height="531">
<path d="M0 0 C2.25853481 1.67580998 4.32619468 3.42267525 6.37890625 5.34375 C6.99121094 5.91480469 7.60351562 6.48585938 8.234375 7.07421875 C22.19695705 21.52996043 24.84486404 41.98761603 24.58984375 61.1875 C24.04960282 79.2755666 17.58389242 92.6688922 4.5625 105.07421875 C0.47862428 108.4569186 -2.82725846 108.81584388 -7.8984375 108.51953125 C-8.46691406 108.46152344 -9.03539062 108.40351563 -9.62109375 108.34375 C-8.24509812 105.26640016 -6.63504519 103.14321159 -4.30859375 100.71875 C3.0314284 92.53592781 5.74715023 84.07780316 5.66796875 73.26953125 C5.25818888 69.12189443 4.22160119 67.34888465 1.37890625 64.34375 C-2.87506761 62.92575871 -6.60359084 62.53604342 -10.85546875 64.23828125 C-12.81338937 65.22071305 -14.72791439 66.24226383 -16.62109375 67.34375 C-13.69475071 66.44686974 -13.69475071 66.44686974 -11.37109375 65.21875 C-7.71023659 64.05393181 -5.32607806 64.40066308 -1.62109375 65.34375 C1.34062455 67.57300033 2.27249786 68.76107236 2.9453125 72.4453125 C2.93618995 80.67384974 1.91078017 86.4336332 -2.62109375 93.34375 C-3.17796875 94.25125 -3.73484375 95.15875 -4.30859375 96.09375 C-8.40801189 100.08237305 -13.52420155 102.7953039 -18.62109375 105.34375 C-19.18447014 107.3376439 -19.18447014 107.3376439 -19.47265625 109.75390625 C-19.6015625 110.66205078 -19.73046875 111.57019531 -19.86328125 112.50585938 C-19.98960937 113.46298828 -20.1159375 114.42011719 -20.24609375 115.40625 C-20.38015625 116.33630859 -20.51421875 117.26636719 -20.65234375 118.22460938 C-21.39989057 123.65195186 -21.76301604 128.86683998 -21.62109375 134.34375 C-20.65171875 134.653125 -19.68234375 134.9625 -18.68359375 135.28125 C-15.62109375 136.34375 -15.62109375 136.34375 -14.62109375 137.34375 C-14.58028592 139.34333364 -14.57855019 141.34420254 -14.62109375 143.34375 C-13.92242187 143.18519531 -13.22375 143.02664062 -12.50390625 142.86328125 C-2.14192768 140.99587861 7.65713088 142.08429165 16.62890625 147.76953125 C18.61883522 149.22805873 20.50077019 150.74413512 22.37890625 152.34375 C23.33410156 153.09398437 24.28929687 153.84421875 25.2734375 154.6171875 C28.60400655 157.39535423 31.16099366 160.57272762 33.75390625 164.03125 C34.42873047 164.90233398 34.42873047 164.90233398 35.1171875 165.79101562 C38.37890625 170.07883739 38.37890625 170.07883739 38.37890625 172.34375 C38.93320312 172.55 39.4875 172.75625 40.05859375 172.96875 C57.34995204 183.21548084 65.21641624 210.44358371 71.18139648 228.20019531 C71.42054276 228.91049896 71.65968903 229.62080261 71.90608215 230.35263062 C72.37620557 231.74904939 72.84464953 233.14603481 73.31132507 234.54360962 C74.71999798 238.68101742 76.36990106 242.57224174 78.296875 246.50390625 C79.74966376 249.60119137 80.37528795 251.16453796 80.4453125 254.6328125 C70.8748092 278.96222381 41.96950473 294.5353527 19.4296875 304.4765625 C2.45711061 311.76103047 2.45711061 311.76103047 -2.3359375 313.10498047 C-4.85215173 314.208396 -4.85215173 314.208396 -6.12207031 316.98486328 C-6.774204 321.3743228 -5.47229717 324.22113514 -3.60546875 328.0859375 C-3.27444153 328.81313995 -2.94341431 329.54034241 -2.60235596 330.2895813 C-1.54341987 332.60818329 -0.45886794 334.91355551 0.62890625 337.21875 C1.69789877 339.51855721 2.76112722 341.82078244 3.81732178 344.12649536 C4.47446816 345.55737479 5.13955143 346.98464662 5.81402588 348.40744019 C7.93897137 352.98654906 9.28232273 357.41325185 10.37890625 362.34375 C26.94594785 353.15657239 41.8122623 334.4414808 50.8046875 317.9921875 C56.23465384 308.06313722 60.8614983 302.68868863 70.37890625 296.34375 C81.64955315 287.09269879 89.74425842 277.25998237 96.37890625 264.34375 C96.97058594 263.21195312 97.56226563 262.08015625 98.171875 260.9140625 C100.96242017 252.65982855 96.98444552 243.893935 94.50390625 235.90625 C94.30771698 235.27391449 94.11152771 234.64157898 93.90939331 233.99008179 C86.43997136 210.11196729 75.80583095 187.5411643 61.34594727 167.10375977 C58.40581171 162.92940315 55.77601523 158.69127891 53.31640625 154.21875 C46.85680088 142.67531728 39.17984593 132.7199394 30.04296875 123.18359375 C27.67454028 120.65889067 25.49700693 118.07921178 23.37890625 115.34375 C24.84147284 112.18806445 26.63471264 109.5187719 28.69140625 106.71875 C35.34545136 97.25430075 38.95091333 87.28415294 42.37890625 76.34375 C47.14909174 78.546177 50.55777273 81.7842546 54.37890625 85.34375 C54.85005859 85.78090332 55.32121094 86.21805664 55.80664062 86.66845703 C65.1318566 95.40562321 72.93943478 104.97122319 80.37890625 115.34375 C80.83394531 115.97539062 81.28898437 116.60703125 81.7578125 117.2578125 C92.98398485 133.00796475 101.42581093 149.95627813 107.37890625 168.34375 C107.64687012 169.16568848 107.91483398 169.98762695 108.19091797 170.83447266 C124.33501794 221.29331015 121.22836877 277.35489529 97.44140625 325.03125 C87.29171697 344.62146285 74.7000598 362.46667651 59.37890625 378.34375 C58.12400391 379.69339844 58.12400391 379.69339844 56.84375 381.0703125 C20.68980082 418.91471782 -32.64480156 438.77011007 -84.22265625 440.3125 C-119.8084631 440.84745732 -119.8084631 440.84745732 -132.62109375 435.34375 C-135.19941032 431.62988078 -135.38571834 427.15145065 -135.9453125 422.78125 C-136.1110955 421.53879517 -136.1110955 421.53879517 -136.28022766 420.27124023 C-136.5114354 418.52341803 -136.7389907 416.77510929 -136.96313477 415.02636719 C-137.3075389 412.35194128 -137.66761898 409.67995074 -138.02929688 407.0078125 C-138.25224871 405.30741552 -138.47428489 403.60689817 -138.6953125 401.90625 C-138.80356857 401.10823975 -138.91182465 400.31022949 -139.02336121 399.48803711 C-139.48435482 395.81098584 -139.67070846 392.89406334 -138.62109375 389.34375 C-137.52152344 389.60929687 -136.42195313 389.87484375 -135.2890625 390.1484375 C-103.17564035 397.84735927 -73.74826695 397.60851145 -41.62109375 390.34375 C-47.90735344 372.59899164 -56.97247017 351.3104633 -74.49609375 342.40625 C-80.36603536 339.6399197 -86.2591044 337.61079416 -92.62109375 336.34375 C-93.57113281 336.14007813 -94.52117187 335.93640625 -95.5 335.7265625 C-112.58682685 332.66560947 -130.47268599 333.85831496 -147.62109375 335.71875 C-148.79051514 335.84467529 -149.95993652 335.97060059 -151.16479492 336.1003418 C-156.95546719 336.45581048 -156.95546719 336.45581048 -161.62109375 339.34375 C-161.77796521 342.32390989 -161.77796521 342.32390989 -161.51953125 345.84375 C-161.48333679 346.50311554 -161.44714233 347.16248108 -161.40985107 347.84182739 C-161.28517592 350.01016936 -161.14226778 352.17675704 -160.99609375 354.34375 C-160.94886169 355.08316833 -160.90162964 355.82258667 -160.85296631 356.58441162 C-159.40607359 386.78158943 -159.40607359 386.78158943 -150.62109375 415.34375 C-149.98976802 419.93438993 -149.92468146 423.27591782 -152.49609375 427.21875 C-162.11853342 433.76200897 -174.06288045 433.49597946 -185.25390625 433.4765625 C-186.48156708 433.47751923 -187.70922791 433.47847595 -188.97409058 433.47946167 C-191.57468721 433.48014122 -194.17528555 433.47830263 -196.77587891 433.47412109 C-200.68396001 433.46883406 -204.59192276 433.47404018 -208.5 433.48046875 C-219.87597461 433.48463518 -231.24577082 433.43360618 -242.61328125 432.9609375 C-243.44965118 432.93057404 -244.28602112 432.90021057 -245.1477356 432.868927 C-255.61156773 432.35327602 -255.61156773 432.35327602 -258.62109375 429.34375 C-258.890625 426.9609375 -258.890625 426.9609375 -258.62109375 424.34375 C-253.92795783 418.7345365 -245.40095682 416.65415852 -238.72216797 414.31665039 C-227.41972784 410.31438536 -216.54477943 405.26843916 -205.62109375 400.34375 C-205.73527145 399.78840576 -205.84944916 399.23306152 -205.96708679 398.66088867 C-226.3841161 299.22739474 -226.3841161 299.22739474 -220.62109375 285.34375 C-215.82586823 280.32549073 -211.04368417 278.63321312 -204.19458008 278.05395508 C-194.93812 278.04568868 -186.38380679 279.14486138 -177.30859375 281.03125 C-175.95095649 281.30271609 -174.59320772 281.57362509 -173.23535156 281.84399414 C-164.96013255 283.51781568 -156.77202238 285.43425201 -148.7097168 287.95776367 C-144.70048622 289.22048313 -144.70048622 289.22048313 -140.62109375 288.34375 C-140.29109375 287.35375 -139.96109375 286.36375 -139.62109375 285.34375 C-140.42546875 285.158125 -141.22984375 284.9725 -142.05859375 284.78125 C-146.97631527 282.79690623 -150.57445631 279.72055155 -154.62109375 276.34375 C-155.29398437 275.80621094 -155.966875 275.26867187 -156.66015625 274.71484375 C-167.50007077 265.75355984 -178.30524999 251.97543751 -184.62109375 239.34375 C-185.07747616 233.30793191 -184.21798275 229.32383805 -181.18359375 224.03125 C-180.81943359 223.37954834 -180.45527344 222.72784668 -180.08007812 222.05639648 C-176.55462935 215.92829268 -172.44969324 210.50775891 -167.62109375 205.34375 C-167.04294922 204.72322754 -166.46480469 204.10270508 -165.86914062 203.46337891 C-158.23106235 195.35714782 -150.60042998 188.04949924 -141.1953125 182.04296875 C-137.86323694 179.8434955 -136.01700002 177.98893058 -133.93359375 174.59375 C-128.27259107 166.63774623 -121.8980702 162.96573313 -112.62109375 160.34375 C-111.88745605 160.13476074 -111.15381836 159.92577148 -110.39794922 159.71044922 C-99.79377911 156.73805211 -89.67811293 154.54511955 -78.62109375 154.34375 C-78.64429688 153.51230469 -78.6675 152.68085938 -78.69140625 151.82421875 C-78.70945313 150.73753906 -78.7275 149.65085938 -78.74609375 148.53125 C-78.76929688 147.45230469 -78.7925 146.37335938 -78.81640625 145.26171875 C-78.62109375 142.34375 -78.62109375 142.34375 -76.62109375 139.34375 C-75.63109375 139.34375 -74.64109375 139.34375 -73.62109375 139.34375 C-73.95109375 136.04375 -74.28109375 132.74375 -74.62109375 129.34375 C-76.00941406 129.37855469 -77.39773437 129.41335937 -78.828125 129.44921875 C-93.46070398 129.70968844 -106.80386457 128.97746235 -118.8515625 119.609375 C-125.50647429 111.08873739 -121.18672548 91.19264924 -120.00097656 81.17724609 C-117.11135549 59.62394133 -109.92316586 40.84459415 -98.62109375 22.34375 C-99.11480469 21.84746094 -99.60851562 21.35117188 -100.1171875 20.83984375 C-103.20194509 17.56888349 -105.37144751 15.09268871 -106.80859375 10.78125 C-106.57558914 6.50949876 -105.42256477 3.52294746 -102.62109375 0.34375 C-100.34974739 -1.30637343 -98.16978093 -2.43091963 -95.62109375 -3.65625 C-95.37359375 -2.66625 -95.12609375 -1.67625 -94.87109375 -0.65625 C-93.18698244 5.17883989 -91.13093745 11.19526789 -85.62109375 14.34375 C-85.29109375 14.01375 -84.96109375 13.68375 -84.62109375 13.34375 C-85.79671875 11.9825 -85.79671875 11.9825 -86.99609375 10.59375 C-90.88310194 6.09300368 -92.10071097 2.50829935 -91.92578125 -3.41015625 C-91.42855337 -7.0756182 -90.1222093 -8.96755079 -87.62109375 -11.65625 C-65.4299854 -26.11058362 -20.7993505 -13.14295769 0 0 Z M3.94775391 205.39648438 C-11.57925995 221.43526861 -22.6247727 244.56589106 -24.55859375 266.78125 C-24.45672247 271.05984362 -24.16247601 272.73412628 -21.296875 275.9609375 C-15.49343747 280.40012481 -15.49343747 280.40012481 -8.62109375 282.34375 C-0.07190403 278.75860592 6.82116817 272.74796244 13.37890625 266.34375 C14.17039062 265.5909375 14.961875 264.838125 15.77734375 264.0625 C18.66798106 261.28785514 18.66798106 261.28785514 21.37890625 258.34375 C21.37890625 257.68375 21.37890625 257.02375 21.37890625 256.34375 C21.93320312 256.10785156 22.4875 255.87195313 23.05859375 255.62890625 C25.94337867 254.0311045 28.09062657 252.02523991 30.50390625 249.78125 C35.18446181 245.44097222 35.18446181 245.44097222 37.37890625 244.34375 C36.8152767 240.23314138 34.59932638 237.92113523 32.00390625 234.78125 C27.64989799 229.33435216 23.9859965 223.63201912 20.50390625 217.59375 C20.05225098 216.81443115 19.6005957 216.0351123 19.13525391 215.23217773 C16.20679956 210.07166311 13.68891943 204.80791329 11.37890625 199.34375 C8.63665884 199.34375 5.81265252 203.53585327 3.94775391 205.39648438 Z M-123.62109375 211.34375 C-124.88394115 212.81196336 -126.13064243 214.29406657 -127.37109375 215.78125 C-132.01233398 221.03435791 -136.97724332 224.64072212 -142.80078125 228.43359375 C-145.04741333 229.95520467 -146.82331527 231.33853554 -148.62109375 233.34375 C-147.73550781 233.97410156 -146.84992188 234.60445312 -145.9375 235.25390625 C-141.81562699 238.69101844 -139.85763231 243.01817012 -137.55859375 247.78125 C-134.72374302 253.57186926 -131.98169202 258.563415 -127.62109375 263.34375 C-121.0897432 256.81239945 -121.73425871 239.13579666 -121.62109375 230.34375 C-121.77799367 226.65842639 -122.0262591 223.00456373 -122.3671875 219.33203125 C-122.59511648 216.64948244 -122.66601095 214.03379106 -122.62109375 211.34375 C-122.95109375 211.34375 -123.28109375 211.34375 -123.62109375 211.34375 Z " fill="#07446C" transform="translate(329.62109375,61.65625)"/>
<path d="M0 0 C-0.67658445 5.52995027 -2.46738837 10.46744165 -4.3125 15.6875 C-7.10133142 23.71859703 -9.21561067 31.6508632 -10.58129883 40.0456543 C-11.5482993 45.48037438 -11.5482993 45.48037438 -13.55859375 47.79296875 C-17.25632179 49.62112549 -21.04390369 51.16260672 -24.875 52.6875 C-43.98613868 60.54537014 -60.19199243 71.7090318 -75 86 C-75.84046875 86.77730469 -76.6809375 87.55460937 -77.546875 88.35546875 C-107.10694938 116.45636748 -122.05850786 156.89161362 -124 197 C-124.04253906 197.85464844 -124.08507812 198.70929688 -124.12890625 199.58984375 C-124.45184807 213.21798835 -122.72374794 226.80457689 -119.4375 240 C-117.67833962 247.10843124 -116.61759675 253.80294161 -116.4375 261.125 C-115.81366718 284.29345778 -110.81701772 307.24026496 -106.64233398 329.98046875 C-106.46840622 330.9359108 -106.29447845 331.89135284 -106.11528015 332.87574768 C-105.78646192 334.68042472 -105.45406864 336.48445531 -105.11750793 338.28770447 C-104.39929641 342.2407511 -103.78797197 345.96168936 -104 350 C-119.3953597 341.71019093 -131.66152737 320.77608966 -140 306 C-140.38897461 305.31631348 -140.77794922 304.63262695 -141.17871094 303.92822266 C-152.2301085 284.30573729 -159.34838723 264.01310665 -164 242 C-164.17934082 241.17193848 -164.35868164 240.34387695 -164.54345703 239.49072266 C-169.55847466 215.2423405 -169.07695889 187.1805158 -164 163 C-163.83371094 162.16227051 -163.66742188 161.32454102 -163.49609375 160.46142578 C-158.11683278 133.7992184 -147.69684967 108.26994445 -132 86 C-131.55962402 85.37174316 -131.11924805 84.74348633 -130.66552734 84.09619141 C-123.24577434 73.615629 -114.98023707 64.16532893 -106 55 C-105.42757568 54.40783691 -104.85515137 53.81567383 -104.26538086 53.20556641 C-100.45675649 49.31493943 -96.50130467 45.81807691 -92.1875 42.5 C-91.577854 42.02715576 -90.96820801 41.55431152 -90.34008789 41.06713867 C-66.77323788 22.90134809 -30.96611401 0 0 0 Z " fill="#07436C" transform="translate(202,93)"/>
<path d="M0 0 C0.495 0.99 0.495 0.99 1 2 C0.28714844 3.01578125 -0.42570312 4.0315625 -1.16015625 5.078125 C-27.21456528 42.41138056 -35.96833284 80.78593007 -33 126 C-33.66 126 -34.32 126 -35 126 C-41.37378462 85.92754346 -31.15042404 42.27397509 -7.42236328 9.37426758 C-1.78805766 1.78805766 -1.78805766 1.78805766 0 0 Z " fill="#002A55" transform="translate(112,192)"/>
<path d="M0 0 C-3.221502 1.3959842 -6.43256561 2.39590762 -9.8125 3.3125 C-18.88237167 6.01186657 -25.01562867 10.6051749 -29.625 18.9375 C-32.01355564 22.01747964 -33.54410917 23.03113284 -36.8515625 24.9296875 C-43.43782072 29.0354559 -48.700234 34.05900513 -54.12646484 39.55004883 C-55.74654648 41.18401688 -57.38926389 42.79247286 -59.03515625 44.40039062 C-65.72327984 51.04266882 -70.71204041 57.52776041 -75 66 C-75.66 65.67 -76.32 65.34 -77 65 C-72.00510763 56.12655223 -66.53404394 48.70504061 -59.41455078 41.44970703 C-58.02566446 40.02630231 -56.66674074 38.57385766 -55.30859375 37.12109375 C-49.57510682 31.12054484 -43.65950218 26.39275143 -36.75 21.875 C-33.37025857 19.57063084 -31.44427542 17.72400438 -29.3125 14.25 C-23.35414237 5.87609198 -10.88874363 -3.49995331 0 0 Z " fill="#00345E" transform="translate(225,222)"/>
<path d="M0 0 C13.94837445 6.11393506 21.80730508 26.63815956 27.13671875 39.92578125 C28.0139744 43.04976405 27.90936272 44.03224726 27 47 C23.33464273 47.81848221 19.66750237 48.62868872 16 49.4375 C14.97003906 49.66759766 13.94007813 49.89769531 12.87890625 50.13476562 C1.92499892 52.54183443 -8.31804328 53.13209179 -19.5 53.0625 C-20.90885258 53.05747533 -22.31770689 53.05291413 -23.7265625 53.04882812 C-27.15108638 53.0371003 -30.57552047 53.02068691 -34 53 C-34 52.34 -34 51.68 -34 51 C-33.36199463 51.01047363 -32.72398926 51.02094727 -32.06665039 51.03173828 C-11.88761097 51.31801719 6.34646019 49.44415939 26 45 C20.53251985 29.56648009 13.19262226 14.370115 1.58203125 2.6171875 C0 1 0 1 0 0 Z " fill="#002D58" transform="translate(262,407)"/>
<path d="M0 0 C0.66 0.33 1.32 0.66 2 1 C1.29875 1.40347656 0.5975 1.80695313 -0.125 2.22265625 C-7.130809 6.70599326 -10.43442463 10.69987213 -13.99658203 18.05322266 C-16.40283223 23.00015732 -19.16894671 27.46712826 -22.375 31.9375 C-22.80433838 32.54674316 -23.23367676 33.15598633 -23.67602539 33.78369141 C-24.72851744 35.231157 -25.85783893 36.6221886 -27 38 C-27.66 38 -28.32 38 -29 38 C-27.21264749 34.0500497 -24.74685792 30.56821809 -22.3125 27 C-19.09608519 22.27675475 -16.17601447 17.55824214 -13.5 12.5 C-10.16063198 6.57402318 -5.84187265 3.33821294 0 0 Z M-30 38 C-29.67 38.99 -29.34 39.98 -29 41 C-32.05833533 44.08748796 -35.12238919 47.16923946 -38.1875 50.25 C-39.48397461 51.55904297 -39.48397461 51.55904297 -40.80664062 52.89453125 C-41.64775391 53.73886719 -42.48886719 54.58320313 -43.35546875 55.453125 C-44.12528076 56.22817383 -44.89509277 57.00322266 -45.68823242 57.80175781 C-48.02336095 60.02221375 -50.45594964 62.02457343 -53 64 C-53.66 63.67 -54.32 63.34 -55 63 C-54.03320312 62.11699219 -53.06640625 61.23398437 -52.0703125 60.32421875 C-44.31515456 53.19246579 -36.90631253 45.9625721 -30 38 Z " fill="#00305A" transform="translate(398,360)"/>
<path d="M0 0 C-0.6384082 0.23702637 -1.27681641 0.47405273 -1.93457031 0.71826172 C-4.16804739 1.80817054 -4.16804739 1.80817054 -4.72949219 4.02783203 C-4.83422852 4.84622559 -4.93896484 5.66461914 -5.046875 6.5078125 C-5.16933594 7.41273438 -5.29179687 8.31765625 -5.41796875 9.25 C-5.52753906 10.19875 -5.63710938 11.1475 -5.75 12.125 C-5.87503906 13.05054688 -6.00007813 13.97609375 -6.12890625 14.9296875 C-6.82274924 20.32793843 -7.12800304 25.55987061 -7 31 C-6.030625 31.309375 -5.06125 31.61875 -4.0625 31.9375 C-1 33 -1 33 0 34 C0.04080783 35.99958364 0.04254356 38.00045254 0 40 C1.04027344 39.75830078 1.04027344 39.75830078 2.1015625 39.51171875 C9.74409315 38.16243099 17.7022691 38.28456525 25 41 C25 41.66 25 42.32 25 43 C24.27981689 42.83701416 23.55963379 42.67402832 22.81762695 42.50610352 C20.10597883 42.01903597 17.66780647 41.88547358 14.91796875 41.90234375 C13.98662109 41.90556641 13.05527344 41.90878906 12.09570312 41.91210938 C11.13599609 41.92048828 10.17628906 41.92886719 9.1875 41.9375 C8.20845703 41.94201172 7.22941406 41.94652344 6.22070312 41.95117188 C3.81373889 41.96291316 1.40690143 41.97933581 -1 42 C-1.66 39.36 -2.32 36.72 -3 34 C-5.31 33.34 -7.62 32.68 -10 32 C-9.60730382 24.04273537 -9.12197481 16.101592 -8.1875 8.1875 C-8.05730469 7.06730469 -7.92710937 5.94710937 -7.79296875 4.79296875 C-7 2 -7 2 -5.11328125 0.05078125 C-3 -1 -3 -1 0 0 Z " fill="#002C59" transform="translate(315,165)"/>
<path d="M0 0 C4.9012971 5.90352312 6.85270861 14.51647035 6.609375 22.1328125 C3.66256954 35.99791 -6.17915199 47.27112031 -15.8125 57.0625 C-16.38830811 57.64797607 -16.96411621 58.23345215 -17.55737305 58.83666992 C-21.75549591 63 -21.75549591 63 -24 63 C-24 62.34 -24 61.68 -24 61 C-22.56640625 59.625 -22.56640625 59.625 -20.5625 58 C-9.28869043 48.31685139 -1.31091694 36.90017766 4 23 C3.81819778 17.45503228 2.39011913 12.63389351 0.62109375 7.39453125 C-0.04200882 4.83804145 -0.10742952 2.62968775 0 0 Z " fill="#00305E" transform="translate(425,296)"/>
<path d="M0 0 C0.33 0 0.66 0 1 0 C1.51116668 13.96271439 0.73036876 26.51072012 -3 40 C-5.76110822 39.65486147 -7.52435426 39.42762381 -9.625 37.5390625 C-13.52767419 32.10636263 -16.84694969 26.36274569 -19 20 C-18.67 19.34 -18.34 18.68 -18 18 C-17.46890625 19.02480469 -16.9378125 20.04960937 -16.390625 21.10546875 C-15.6773651 22.46629356 -14.96380762 23.82696242 -14.25 25.1875 C-13.90195313 25.86103516 -13.55390625 26.53457031 -13.1953125 27.22851562 C-11.12144501 31.16502337 -8.92318666 34.60936683 -6 38 C-2.22117483 29.06679405 -1.72982463 19.77689334 -1.34155273 10.19458008 C-1.19183011 6.66058998 -0.94174856 3.40784882 0 0 Z " fill="#002D59" transform="translate(208,286)"/>
<path d="M0 0 C1.26237731 3.78713193 0.67558873 6.25651933 0.0625 10.1875 C-0.13214844 11.45980469 -0.32679688 12.73210937 -0.52734375 14.04296875 C-0.68332031 15.01878906 -0.83929688 15.99460937 -1 17 C-3 15 -3 15 -3.1953125 12.8359375 C-3.17210937 12.02382813 -3.14890625 11.21171875 -3.125 10.375 C-3.10695312 9.55773437 -3.08890625 8.74046875 -3.0703125 7.8984375 C-3.04710937 7.27195312 -3.02390625 6.64546875 -3 6 C-3.49886719 6.61746094 -3.99773437 7.23492187 -4.51171875 7.87109375 C-8.90637379 13.05473533 -13.31705152 17.29935494 -18.875 21.1875 C-19.71357544 21.78485962 -19.71357544 21.78485962 -20.5690918 22.39428711 C-22.1796875 23.48046875 -22.1796875 23.48046875 -25 25 C-25.99 24.67 -26.98 24.34 -28 24 C-27.2265625 23.50371094 -26.453125 23.00742187 -25.65625 22.49609375 C-16.84450983 16.74883252 -9.24774803 11.31378067 -3.2265625 2.6015625 C-2 1 -2 1 0 0 Z " fill="#003060" transform="translate(209,268)"/>
<path d="M0 0 C0.33 0 0.66 0 1 0 C0.95875 1.175625 0.9175 2.35125 0.875 3.5625 C1.80842282 12.47244514 9.15451597 20.73215954 14.828125 27.33203125 C17 30 17 30 17 32 C17.66 32 18.32 32 19 32 C21.6875 34.8125 21.6875 34.8125 24 38 C23.67 38.99 23.34 39.98 23 41 C16.25158168 33.5575954 9.9534239 25.90410808 4.25 17.625 C3.7250293 16.88910645 3.20005859 16.15321289 2.65917969 15.39501953 C-0.72878571 10.34942788 -1.67368366 7.0766266 -1 1 C-0.67 0.67 -0.34 0.34 0 0 Z " fill="#002E5B" transform="translate(146,292)"/>
<path d="M0 0 C0.99 0 1.98 0 3 0 C6.41579476 5.12369214 5.63155779 11.02890813 5 17 C2.24012069 25.35660668 -2.51998762 31.4099924 -10 36 C-10.66 35.67 -11.32 35.34 -12 35 C-11.32453125 34.45472656 -10.6490625 33.90945312 -9.953125 33.34765625 C-4.29124612 28.5612413 0.43603559 24.45117328 2 17 C2.95503614 8.07381612 2.95503614 8.07381612 0 0 Z " fill="#00325F" transform="translate(327,128)"/>
<path d="M0 0 C0 0.33 0 0.66 0 1 C-0.84304687 1.12117188 -1.68609375 1.24234375 -2.5546875 1.3671875 C-3.65039062 1.53476562 -4.74609375 1.70234375 -5.875 1.875 C-6.96554688 2.03742188 -8.05609375 2.19984375 -9.1796875 2.3671875 C-12.11932714 2.76256513 -12.11932714 2.76256513 -14 5 C-14.18459347 7.72282469 -14.18459347 7.72282469 -13.9765625 10.8828125 C-13.925 12.04941406 -13.8734375 13.21601563 -13.8203125 14.41796875 C-13.75585938 15.64128906 -13.69140625 16.86460937 -13.625 18.125 C-13.56828125 19.35605469 -13.5115625 20.58710938 -13.453125 21.85546875 C-13.31132317 24.90420806 -13.15988027 27.95216388 -13 31 C-13.66 31 -14.32 31 -15 31 C-15.84820722 24.12346288 -16.10853121 17.29600791 -16.125 10.375 C-16.13176758 9.16577881 -16.13176758 9.16577881 -16.13867188 7.93212891 C-16.12376909 2.12376909 -16.12376909 2.12376909 -15 1 C-9.93755771 0.21444861 -5.11652669 -0.10659431 0 0 Z " fill="#002D53" transform="translate(182,396)"/>
<path d="M0 0 C-0.33 0.66 -0.66 1.32 -1 2 C-1.99 1.9175 -2.98 1.835 -4 1.75 C-8.63412067 1.71209308 -12.07634666 3.71714715 -16 6 C-15.01 5.67 -14.02 5.34 -13 5 C-11 4.33333333 -9 3.66666667 -7 3 C-7 3.66 -7 4.32 -7 5 C-7.75925781 5.39832031 -8.51851563 5.79664063 -9.30078125 6.20703125 C-10.29464844 6.73683594 -11.28851563 7.26664063 -12.3125 7.8125 C-13.29863281 8.33457031 -14.28476562 8.85664063 -15.30078125 9.39453125 C-17.6346536 10.78269556 -19.13356696 12.08762399 -21 14 C-21.66 14 -22.32 14 -23 14 C-22.35965212 8.67596481 -20.19934707 6.86439565 -16.18359375 3.5859375 C-10.76652867 -0.3484604 -6.75167393 -1.5156819 0 0 Z " fill="#00315D" transform="translate(329,123)"/>
<path d="M0 0 C0.66 0.66 1.32 1.32 2 2 C1.67 2.66 1.34 3.32 1 4 C1.31313667 11.01948042 3.56041755 15.46721932 8.34375 20.50390625 C9.94384008 22.08345514 9.94384008 22.08345514 12 23 C12 23.66 12 24.32 12 25 C3.42857143 24.28571429 3.42857143 24.28571429 0 21 C0.33 20.34 0.66 19.68 1 19 C2.32 19.99 3.64 20.98 5 22 C5.33 21.67 5.66 21.34 6 21 C5.21625 20.0925 4.4325 19.185 3.625 18.25 C0.35066344 14.45866293 -1.28103014 11.45963852 -1.1875 6.375 C-1.17783203 5.21097656 -1.17783203 5.21097656 -1.16796875 4.0234375 C-1 2 -1 2 0 0 Z " fill="#002F5B" transform="translate(239,54)"/>
<path d="M0 0 C0.66 0.66 1.32 1.32 2 2 C-14.63404726 25.80919705 -14.63404726 25.80919705 -20 31 C-19.44799037 26.87964237 -17.03879626 24.24062363 -14.5 21.125 C-9.15225718 14.39206896 -4.53072194 7.29949647 0 0 Z " fill="#00325E" transform="translate(416,401)"/>
<path d="M0 0 C-0.48578543 3.12290635 -0.9986012 5.99580359 -2 9 C-2.66 9 -3.32 9 -4 9 C-3.125 4.25 -3.125 4.25 -2 2 C-2.6705542 2.176521 -3.3411084 2.35304199 -4.03198242 2.53491211 C-7.0834268 3.33728499 -10.13545527 4.13741389 -13.1875 4.9375 C-14.24259766 5.21529297 -15.29769531 5.49308594 -16.38476562 5.77929688 C-17.40634766 6.04677734 -18.42792969 6.31425781 -19.48046875 6.58984375 C-20.41785889 6.83597412 -21.35524902 7.08210449 -22.32104492 7.33569336 C-24.87008364 7.96778434 -27.4208113 8.5070702 -30 9 C-29 7 -29 7 -27.03808594 6.23803711 C-26.19536133 6.0035083 -25.35263672 5.76897949 -24.484375 5.52734375 C-23.56269531 5.26759766 -22.64101562 5.00785156 -21.69140625 4.74023438 C-20.72074219 4.47533203 -19.75007812 4.21042969 -18.75 3.9375 C-17.79480469 3.66873047 -16.83960938 3.39996094 -15.85546875 3.12304688 C-4.65611362 0 -4.65611362 0 0 0 Z " fill="#002F5D" transform="translate(202,93)"/>
<path d="M0 0 C2.76220891 2.76220891 2.88198748 5.74255363 3.5078125 9.45703125 C3.63815887 10.19700851 3.76850525 10.93698578 3.90280151 11.6993866 C4.17711303 13.26646104 4.4475293 14.83422156 4.71435547 16.40258789 C5.12188172 18.79420004 5.54231264 21.18326389 5.96484375 23.57226562 C6.2299377 25.09622025 6.49428486 26.620305 6.7578125 28.14453125 C6.88278107 28.85615921 7.00774963 29.56778717 7.13650513 30.30097961 C7.74468089 33.90646991 8.1413419 37.34244502 8 41 C7.01 40.67 6.02 40.34 5 40 C5.0515625 38.98550781 5.103125 37.97101563 5.15625 36.92578125 C5.15625 30.25126688 3.69962311 23.72906897 2.5 17.1875 C2.02774707 14.57743096 1.56025752 11.96657798 1.09375 9.35546875 C0.88427734 8.20715576 0.67480469 7.05884277 0.45898438 5.87573242 C0 3 0 3 0 0 Z " fill="#003261" transform="translate(90,402)"/>
<path d="M0 0 C3.86911382 3.70149878 7.13662354 7.61835637 10.375 11.875 C13.46412075 15.88787712 16.53519404 19.72414862 20.1875 23.25 C21.115625 24.1575 22.04375 25.065 23 26 C23 26.66 23 27.32 23 28 C15.75627837 25.58542612 10.58326937 16.04196565 6.0625 10.125 C5.47404297 9.36703125 4.88558594 8.6090625 4.27929688 7.828125 C3.72435547 7.10367187 3.16941406 6.37921875 2.59765625 5.6328125 C1.84754272 4.65658936 1.84754272 4.65658936 1.08227539 3.66064453 C0 2 0 2 0 0 Z " fill="#002F5F" transform="translate(70,410)"/>
<path d="M0 0 C1.26237731 3.78713193 0.67558873 6.25651933 0.0625 10.1875 C-0.22947266 12.09595703 -0.22947266 12.09595703 -0.52734375 14.04296875 C-0.68332031 15.01878906 -0.83929688 15.99460937 -1 17 C-1.66 16.34 -2.32 15.68 -3 15 C-2.9765625 12.6171875 -2.9765625 12.6171875 -2.625 9.875 C-2.51414063 8.96492188 -2.40328125 8.05484375 -2.2890625 7.1171875 C-2.19367188 6.41851562 -2.09828125 5.71984375 -2 5 C-2.66 4.67 -3.32 4.34 -4 4 C-2.68 2.68 -1.36 1.36 0 0 Z " fill="#002A51" transform="translate(209,268)"/>
<path d="M0 0 C0 3 0 3 -1.37695312 4.7175293 C-2.00537109 5.33023682 -2.63378906 5.94294434 -3.28125 6.57421875 C-3.95800781 7.24130859 -4.63476562 7.90839844 -5.33203125 8.59570312 C-6.04746094 9.28599609 -6.76289063 9.97628906 -7.5 10.6875 C-8.57314453 11.7403418 -8.57314453 11.7403418 -9.66796875 12.81445312 C-11.43879577 14.54986361 -13.21623456 16.2779073 -15 18 C-15 15 -15 15 -12.83203125 12.64453125 C-11.43017578 11.33548828 -11.43017578 11.33548828 -10 10 C-9.11699219 9.11699219 -8.23398437 8.23398437 -7.32421875 7.32421875 C-4.8828125 4.8828125 -2.44140625 2.44140625 0 0 Z " fill="#003762" transform="translate(394,432)"/>
<path d="M0 0 C0.99 0.33 1.98 0.66 3 1 C2.43410156 1.55429687 1.86820312 2.10859375 1.28515625 2.6796875 C0.55167969 3.40414063 -0.18179687 4.12859375 -0.9375 4.875 C-1.66839844 5.59429687 -2.39929688 6.31359375 -3.15234375 7.0546875 C-5.05667999 8.87027192 -5.05667999 8.87027192 -6 11 C-6.66 11 -7.32 11 -8 11 C-6.4722133 7.56247993 -4.49818944 4.81046312 -2 2 C-1.34 2 -0.68 2 0 2 C0 1.34 0 0.68 0 0 Z " fill="#002E55" transform="translate(335,263)"/>
<path d="M0 0 C0.33 0.99 0.66 1.98 1 3 C0.01 3.66 -0.98 4.32 -2 5 C0.31 5 2.62 5 5 5 C4.67 5.66 4.34 6.32 4 7 C1.03 7 -1.94 7 -5 7 C-3.38262276 3.76524552 -2.52370777 2.29427979 0 0 Z " fill="#002E53" transform="translate(325,163)"/>
<path d="M0 0 C0.66 0.33 1.32 0.66 2 1 C2.6328125 3.28515625 2.6328125 3.28515625 3.125 6.0625 C3.29257813 6.98160156 3.46015625 7.90070313 3.6328125 8.84765625 C3.75398437 9.55792969 3.87515625 10.26820312 4 11 C3.01 10.67 2.02 10.34 1 10 C0.8046875 7.94921875 0.609375 5.8984375 0.4140625 3.84765625 C0.27742187 3.23792969 0.14078125 2.62820312 0 2 C-0.66 1.67 -1.32 1.34 -2 1 C-1.34 0.67 -0.68 0.34 0 0 Z " fill="#003260" transform="translate(233,58)"/>
</svg>
